<svg version="1.1" id="Layer_1" xmlns="http://www.w3.org/2000/svg" x="0" y="0" width="188" height="40" viewBox="0 0 188 40" style="enable-background:new 0 0 188 40" xml:space="preserve"><style>.st0{fill:#0089cf}</style><path class="st0" d="M107.62 18.54h5.86v2.08h-8.56v-8.58h.9c1.1.06 1.79.38 1.79 1.46v5.04zM90.9 15.23h1.14c.86-.78 1.73-1.57 2.6-2.35.75-.6 1.51-.82 2.41-.83h2.08l-4.76 4.23 5.39 4.35h-2.17c-1.11 0-1.72-.12-2.6-.83l-2.96-2.42H90.9v3.25h-2.68v-8.58h2.68v3.18zM65.18 20.62h-2.69v-8.58h1.32c.85.09 1.31.62 1.37 1.48v1.67h5.51v-1.7c-.02-.55.45-1.39 1.54-1.45h1.16v8.58h-2.7v-3.35h-5.51v3.35zM124.42 14.13h-6.93v1.3h6.93v1.8h-6.93v1.31h6.96v2.08h-9.65v-6.48c.11-1.07.52-1.91 2.22-2.1h7.4v2.09zM132.69 20.62H130v-3.08l-4.85-5.5h2.1c.57.02 1.31.23 1.95.88l2.14 2.53c.74-.83 1.48-1.67 2.22-2.5.41-.45.97-.82 2.17-.91h1.82l-4.86 5.5v3.08zM140.98 18.54h5.86v2.08h-8.55v-8.58h.89c1.1.06 1.79.38 1.79 1.46v5.04zM173.32 20.62h-3.94l-5.28-6.24v6.24h-2.69v-8.58h2.21c1.63.06 2.45.81 3.21 1.72l3.81 4.57v-6.29h2.68v8.58zM181.44 14.16h-4.22v4.38h4.56c.57 0 .98-.12 1.25-.34.26-.23.4-.58.4-1.07v-1.5c0-.5-.16-.87-.48-1.11-.33-.24-.83-.36-1.51-.36m.81-2.12c1.35 0 2.32.23 2.94.69.62.46.92 1.18.92 2.19v2.95c0 .95-.25 1.65-.73 2.09-.49.44-1.27.66-2.33.66h-8.51v-8.58h7.71zM57.49 18.75c.33 0 .57-.05.72-.17.14-.11.21-.29.21-.54 0-.26-.08-.44-.25-.55-.16-.11-.51-.18-1.06-.23l-4.22-.09c-1.06-.03-1.77-.23-2.14-.59-.37-.36-.56-1.02-.56-1.97 0-.49.05-.9.15-1.21.09-.32.25-.58.47-.79.26-.24.6-.41 1.01-.51.41-.1 1.09-.15 2.01-.15h4.11c1.02 0 1.75.18 2.2.54.37.3.58.75.64 1.34H54.2c-.51 0-.85.05-1.02.15-.17.1-.25.28-.25.53 0 .24.08.42.22.53.15.12.43.18.83.21l4.42.07c1.01.03 1.72.25 2.13.66.42.42.62 1.12.62 2.13 0 .59-.08 1.05-.22 1.38-.15.33-.41.61-.77.84-.23.15-.56.24-.96.31-.41.07-1 .09-1.78.09h-3.58c-1.47 0-2.45-.16-2.96-.48-.44-.28-.68-.79-.73-1.5h7.34zM39.71 20.62h-2.93l4.81-8.58h3.43l4.72 8.58h-2.96l-.85-1.43h-5.37l-.85 1.43zm1.86-3.49h3.38l-1.71-3.03-1.67 3.03zM79.26 20.72c-1.02 0-1.78-.05-2.26-.13-.47-.09-.86-.24-1.17-.46-.33-.25-.57-.57-.73-.96-.15-.41-.22-.93-.22-1.58v-2.34c0-.71.07-1.29.22-1.7.16-.42.4-.75.73-1 .3-.21.7-.37 1.19-.46.48-.09 1.23-.14 2.22-.14h3.16c1 0 1.75.05 2.25.14.5.09.89.24 1.18.46.33.24.57.57.72.99.14.42.23.95.23 1.61v2.39c0 .66-.09 1.2-.23 1.61-.15.42-.39.75-.72.99-.29.22-.68.37-1.16.46-.49.09-1.24.13-2.26.13h-3.15zm.73-2.14h1.71c.95 0 1.59-.12 1.89-.35.3-.24.46-.66.46-1.29v-1.22c0-.63-.16-1.06-.46-1.29-.31-.23-.94-.35-1.89-.35h-1.72c-.97 0-1.61.12-1.9.35-.3.23-.46.68-.46 1.33v1.19c0 .62.16 1.04.48 1.27.31.24.94.36 1.89.36M150.48 20.62h-2.93l4.82-8.58h3.42l4.73 8.58h-2.95l-.85-1.43h-5.37l-.87 1.43zm1.88-3.49h3.38l-1.71-3.03-1.67 3.03zM19.23 13.05c.15-.33.29-.67.3-1.02H14.9l-.1.07-.14.44c-.11.33.14.27.26.33.37.16.48.43.41.75l-1.46 4.54c-.19.49-.56.56-1.13.63-.1.3-.13.41-.23.67l.1.09h8.29l1.01-3.26c-.22-.07-.5-.08-.81-.01-.21.33-.25.83-.5 1.28-.16.28-.41.55-.81.76-.8.33-1.35.19-2.55.2-.09 0-.2-.01-.29-.02-.18-.02-.18-.08-.15-.2l1.48-4.75c.15-.39.55-.46.95-.5"/><path d="M16.82 1.73c8.21 0 14.92 6.61 14.92 14.72s-6.71 14.72-14.92 14.72C8.6 31.17 1.9 24.56 1.9 16.45 1.89 8.35 8.59 1.73 16.82 1.73m0 8.39c3.53 0 6.41 2.85 6.41 6.33s-2.88 6.33-6.41 6.33c-3.54 0-6.42-2.84-6.42-6.33 0-3.48 2.88-6.33 6.42-6.33m.37-6.28c-1.79.89-7.7 4.94-8.21 12.27-.84-.94-2.27-3.92-2.24-7.15l.06-.26c.78-1.66 5.49-5.3 10.39-4.86M4.21 15.99c.88 1.79 4.94 7.7 12.26 8.21-.94.85-3.91 2.27-7.14 2.25l-.28-.06c-1.65-.79-5.29-5.5-4.84-10.4m12.23 13.07c1.79-.9 7.7-4.95 8.22-12.27.83.95 2.26 3.92 2.24 7.15l-.06.27c-.79 1.65-5.5 5.29-10.4 4.85m12.98-12.15c-.89-1.78-4.94-7.7-12.27-8.21.94-.84 3.91-2.26 7.15-2.24l.27.07c1.65.77 5.29 5.48 4.85 10.38" style="fill-rule:evenodd;clip-rule:evenodd;fill:#0089cf"/><path class="st0" d="M52.12 34.8h-.58l-.5 3.35h-1.62l1.21-8.08h1.62l-.49 3.3h.56l2.29-3.3h2.11l-3.16 4.04 2.06 4.04h-1.86zM56.92 35.09c.14-.93.5-1.67 1.07-2.23.58-.55 1.31-.83 2.21-.83.85 0 1.5.29 1.93.87.43.58.58 1.31.46 2.19l-.02.12c-.14.94-.5 1.68-1.08 2.23-.58.55-1.31.83-2.21.83-.85 0-1.5-.29-1.93-.86-.43-.58-.58-1.31-.44-2.19l.01-.13zm1.59.12c-.09.57-.06 1.01.08 1.33.14.32.43.48.86.48.4 0 .73-.17.98-.5.26-.34.42-.77.5-1.31l.02-.12c.08-.55.05-.99-.1-1.32-.14-.33-.43-.49-.85-.49-.4 0-.73.17-.99.51-.26.34-.42.77-.49 1.3l-.01.12zM65.39 38.15h-1.62l.9-6h1.62l-.9 6zm1.12-7.44h-1.62l.18-1.22h1.62l-.18 1.22zM75.31 36.03h.03l2.97-5.96h2.12l-1.21 8.08H77.6l.82-5.51h-.03l-2.83 5.51h-1.09l-1.18-5.53h-.03l-.83 5.53h-1.62l1.21-8.08h2.13zM84.69 38.15c-.04-.14-.07-.28-.09-.44-.02-.15-.03-.31-.02-.47-.21.3-.47.54-.77.73-.3.19-.64.29-1.02.29-.61 0-1.06-.16-1.37-.49-.3-.33-.41-.77-.33-1.32.09-.61.38-1.07.88-1.38.5-.31 1.18-.47 2.06-.47h.91l.07-.48c.04-.3 0-.53-.13-.68-.13-.15-.34-.23-.65-.23-.25 0-.46.06-.63.19-.17.13-.27.3-.3.52h-1.56l-.01-.03c.06-.53.34-.97.86-1.33.52-.36 1.16-.54 1.92-.54.7 0 1.25.18 1.65.55.4.37.55.88.45 1.55l-.37 2.48c-.04.29-.06.56-.06.8.01.24.04.48.09.73h-1.58zm-1.32-1.08c.27 0 .53-.07.78-.21.25-.14.43-.31.54-.49l.13-.84h-.92c-.33 0-.6.09-.81.26-.21.17-.33.38-.37.62-.03.21.01.37.12.49.12.11.3.17.53.17M90.15 32.97c.24-.3.52-.53.84-.69.32-.16.66-.24 1.02-.24.58 0 1.02.2 1.31.59.29.4.38 1.01.25 1.84l-.55 3.68H91.4l.55-3.67c.07-.44.04-.75-.08-.92-.12-.17-.33-.26-.64-.26-.24 0-.45.05-.65.14-.2.09-.37.22-.51.39l-.65 4.32H87.8l.9-6h1.51l-.06.82zM96.83 36.88l.01.03h2.94l-.19 1.24H94.6l.14-.95 3.4-3.77-.01-.03H95.4l.19-1.25h4.8l-.13.92zM102.88 38.15h-1.62l.9-6h1.62l-.9 6zm1.12-7.44h-1.62l.18-1.22h1.62l-.18 1.22zM106.49 38.15h-1.62l1.29-8.66h1.63zM111.91 38.15l1.21-8.08h2.82c.95 0 1.71.32 2.27.95.56.64.77 1.44.63 2.42l-.2 1.34c-.15 1.03-.6 1.85-1.32 2.46-.73.61-1.59.91-2.59.91h-2.82zm2.64-6.83-.84 5.59h1.2c.51 0 .96-.2 1.36-.6.4-.4.64-.91.73-1.52l.2-1.35c.09-.64.01-1.15-.26-1.54-.26-.39-.66-.58-1.2-.58h-1.19zM120.08 35.09c.14-.93.5-1.67 1.07-2.23.58-.55 1.31-.83 2.21-.83.85 0 1.5.29 1.93.87.43.58.58 1.31.46 2.19l-.02.12c-.14.94-.5 1.68-1.08 2.23-.58.55-1.31.83-2.21.83-.85 0-1.5-.29-1.93-.86-.43-.58-.58-1.31-.44-2.19l.01-.13zm1.6.12c-.09.57-.06 1.01.08 1.33.14.32.43.48.86.48.4 0 .73-.17.98-.5.26-.34.42-.77.5-1.31l.02-.12c.08-.55.05-.99-.1-1.32-.14-.33-.43-.49-.85-.49-.4 0-.73.17-.99.51-.26.34-.42.77-.49 1.3l-.01.12zM127.07 35.09c.14-.93.5-1.67 1.07-2.23.58-.55 1.31-.83 2.21-.83.85 0 1.5.29 1.93.87.43.58.58 1.31.46 2.19l-.02.12c-.14.94-.5 1.68-1.08 2.23-.58.55-1.31.83-2.21.83-.85 0-1.5-.29-1.93-.86-.43-.58-.58-1.31-.44-2.19l.01-.13zm1.6.12c-.09.57-.06 1.01.08 1.33.14.32.43.48.86.48.4 0 .73-.17.98-.5.26-.34.42-.77.5-1.31l.02-.12c.08-.55.04-.99-.1-1.32-.14-.33-.43-.49-.85-.49-.4 0-.73.17-.99.51-.26.34-.42.77-.49 1.3l-.01.12zM137.69 33.54l-.59-.02c-.23 0-.44.05-.61.16-.17.11-.32.25-.43.45l-.6 4.02h-1.62l.9-6h1.5l-.06.86c.18-.31.4-.55.65-.72.25-.17.52-.25.82-.25.08 0 .15.01.22.02s.14.03.2.05l-.38 1.43zM148.46 38.15h-1.62l-2.44-5.45-.04.01-.81 5.44h-1.62l1.21-8.08h1.62l2.44 5.45.04-.01.81-5.44h1.62zM153.94 38.15c-.04-.14-.07-.28-.09-.44-.02-.15-.03-.31-.02-.47-.21.3-.47.54-.77.73-.3.19-.64.29-1.02.29-.61 0-1.06-.16-1.37-.49-.3-.33-.41-.77-.33-1.32.09-.61.38-1.07.88-1.38.5-.31 1.18-.47 2.06-.47h.91l.07-.48c.04-.3 0-.53-.13-.68-.13-.15-.34-.23-.65-.23-.25 0-.46.06-.63.19-.17.13-.27.3-.3.52h-1.56l-.01-.03c.06-.53.34-.97.86-1.33.52-.36 1.16-.54 1.92-.54.7 0 1.25.18 1.65.55.4.37.55.88.45 1.55l-.37 2.48c-.04.29-.06.56-.06.8.01.24.04.48.09.73h-1.58zm-1.32-1.08c.27 0 .53-.07.78-.21.25-.14.43-.31.54-.49l.13-.84h-.91c-.33 0-.6.09-.81.26-.21.17-.33.38-.37.62-.03.21.01.37.12.49.11.11.28.17.52.17M159.44 32.87c.23-.27.5-.47.79-.62.29-.15.61-.22.94-.22.6 0 1.06.21 1.36.63.31.42.39 1.06.26 1.92l-.53 3.56h-1.62l.54-3.57c.07-.48.04-.82-.07-1.01-.12-.18-.33-.28-.64-.28-.24 0-.46.04-.66.13-.19.09-.36.2-.51.36l-.65 4.37h-1.62l1.3-8.66h1.62l-.51 3.39zM165.76 38.15h-1.62l.9-6h1.62l-.9 6zm1.11-7.44h-1.62l.18-1.22h1.62l-.18 1.22zM169.99 32.97c.24-.3.52-.53.84-.69.32-.16.66-.24 1.02-.24.58 0 1.02.2 1.31.59.29.4.38 1.01.25 1.84l-.55 3.68h-1.63l.55-3.67c.07-.44.04-.75-.08-.92-.12-.17-.33-.26-.64-.26-.24 0-.45.05-.65.14-.2.09-.37.22-.51.39l-.65 4.32h-1.62l.9-6h1.51l-.05.82z"/></svg>