<?xml version="1.0" encoding="UTF-8"?>
<svg width="60px" height="60px" viewBox="0 0 60 60" version="1.1" xmlns="http://www.w3.org/2000/svg" xmlns:xlink="http://www.w3.org/1999/xlink">
    <title>Group 5</title>
    <g id="Page-1" stroke="none" stroke-width="1" fill="none" fill-rule="evenodd">
        <g id="Group-5">
            <path d="M35.2652156,23.1572131 C35.6164755,22.4857673 35.835387,21.7535018 35.9101169,21 L26.0640871,21 L25.8496574,21.1606264 L25.5481661,22.0970786 C25.3079403,22.8054412 25.8496574,22.66409 26.0963321,22.8054412 C26.7732613,23.0157241 27.1616379,23.7221448 26.9750101,24.4036743 L23.8778718,34.054111 C23.471584,35.0917579 22.6960903,35.2331091 21.4836759,35.3857042 C21.2789198,36.02821 21.2047561,36.246662 21,36.8008232 L21.2176542,37 L38.8476421,37 L41,30.075394 C40.4369515,29.9127235 39.8401227,29.905506 39.2732769,30.0545126 C38.821846,30.7468126 38.7363966,31.8214035 38.1995163,32.7851621 C37.7964459,33.4763707 37.1989521,34.0347895 36.4808545,34.3914266 C34.783152,35.0997892 33.6045949,34.7849613 31.050786,34.8202992 C30.8410482,34.8197839 30.6315606,34.8058342 30.4236195,34.7785363 C30.0495768,34.7303484 30.0495768,34.6018472 30.1011689,34.3496637 L33.248287,24.2703544 C33.5481661,23.3820902 34.3994357,23.2262825 35.2603789,23.1604257" id="Path_98" fill="#1589CA" fill-rule="nonzero"></path>
            <path d="M30.349903,0.00173045594 C46.8717188,0.194451022 60.1274648,13.7104249 59.9990752,30.2329553 C59.8706855,46.7554856 46.406499,60.0638279 29.8836834,60 C13.3608678,59.9357115 0,46.5233709 0,30.0003417 C0.133131619,13.3516908 13.6978288,-0.058049843 30.34682,0 M29.6448761,17 C36.5288149,17.0799076 42.0523927,22.7110475 41.9996251,29.5954484 C41.9468574,36.4798492 36.3376102,42.025653 29.4532572,42 C22.5689041,41.9741685 17.001285,36.3865716 17,29.5019687 C17.0501497,22.5622352 22.7052255,16.971121 29.6448761,17 M31,4.07661116 C27.4105464,5.8818745 15.5370356,14.1138753 14.5049535,29 C11.5388721,24.7534883 9.96382643,19.6765937 10.0006306,14.4810736 L10.1254547,13.9310444 C11.6903225,10.578632 21.1465083,3.17628408 30.9984778,4.07507476 M4.07746197,30 C5.87580501,33.5859609 14.1170548,45.4647412 29,46.483877 C24.7641132,49.4563228 19.6850184,51.0364219 14.485353,50.9993627 L13.9259712,50.888488 C10.5696807,49.3058657 3.16365099,39.8405085 4.07746197,30 M30,55.9262997 C33.589763,54.1041479 45.4638287,45.8798824 46.4955622,31 C49.4423123,35.2545336 51.015462,40.3242102 51,45.5157594 L50.87206,46.0611758 C49.2879383,49.4243211 39.8471202,56.8158663 30,55.9262997 M55.9210676,30 C54.1145905,26.4195612 45.8799503,14.5419834 31,13.5029422 C35.2432695,10.5445096 40.3187898,8.97009307 45.5149587,9.00043032 L46.0709163,9.13107001 C49.414362,10.6972271 56.8112158,20.1610089 55.9272278,30" id="Path_99" fill="#1488C9"></path>
        </g>
    </g>
</svg>